<svg xmlns="http://www.w3.org/2000/svg" enable-background="new 0 0 4680 3120" viewBox="0 0 4680 3120" width="4680" height="3120"><path fill="#f2f2f2" d="M2139.156 2047.283c-658.634 33.545-1611.347-157.209-1799.074 139.96s390.982 240.759 274.075 371.559c-116.908 130.8 1330.547 307.115 2444.804 284.444 1114.257-22.671 1674.546-662.663 1073.999-709.848-600.549-47.187-1993.804-86.115-1993.804-86.115zM2213.323 570.625C1727.984 937.967 978.425 416.614 825.051 936.045c-153.374 519.431 2737.14 1231.674 2984.899 217.813S2852.421 86.907 2213.323 570.625z"/><path fill="#bcbec0" d="m2251.739 794.249 983.8 416.223v1305.361l-983.8-416.223z"/><path fill="#959597" d="m3910.81 939.781-675.271 270.691-983.8-416.223 684.003-282.333z"/><path fill="#afb1b5" d="M3910.81 939.781v1305.362l-675.271 270.69V1210.472zM2315.774 928.139l820.803 365.981v510.125l-820.803-352.189z"/><path fill="#959597" d="m2315.774 1531.142 820.803 365.982v510.124l-820.803-352.188zM2633.006 1266.744l186.339 83.086v75.06l-186.339-79.954z"/><path fill="#954512" d="m1848.021 1977.428-34.087 16.009 745.72 795.963 34.087-16.009v-463.46z"/><path fill="#f7841c" d="m1813.934 1993.437 745.72 332.503v463.46l-745.72-319.972z"/><path fill="#954512" d="m2089.354 2310.698 194.881 86.894v74.547l-194.881-83.619z"/><path fill="#f7841c" d="M3136.577 2029.471v242.428l-542.836 403.591v-268.246zM2774.696 1735.349l-587.894 393.142-245.308-109.382 590.162-392.094-24.479-10.944z"/><path fill="#5e290b" d="m2774.686 1735.359 361.891 161.765v96.313l-542.836 381.973v-65.479l-406.947-181.45z"/><path fill="#954512" d="M3136.577 1993.437v36.034l-542.836 377.773v-31.842zM2531.656 1627.015l-590.162 392.094-23.927-10.682 589.61-392.356z"/><path fill="#636363" d="M2593.741 2118.596a2.915 2.915 0 0 1-2.72-1.876c-1.589-4.167-2.393-8.183-2.393-11.939 0-3.374.645-6.624 1.921-9.659a2.91 2.91 0 1 1 5.367 2.254c-.972 2.318-1.467 4.808-1.467 7.405 0 3.044.677 6.364 2.012 9.867a2.912 2.912 0 0 1-2.72 3.948zm12.902-33.663a2.914 2.914 0 0 1-2.476-1.374 2.913 2.913 0 0 1 .935-4.008c5.085-3.162 11.512-6.064 19.101-8.624a2.905 2.905 0 0 1 3.687 1.826 2.909 2.909 0 0 1-1.828 3.688c-7.163 2.419-13.18 5.128-17.885 8.053a2.909 2.909 0 0 1-1.534.439zm38.173-13.723a2.91 2.91 0 0 1-2.837-2.277 2.909 2.909 0 0 1 2.206-3.475c6.123-1.366 12.933-2.656 20.244-3.836a2.91 2.91 0 0 1 .927 5.747c-7.197 1.161-13.894 2.429-19.903 3.77a2.834 2.834 0 0 1-.637.071zm40.312-6.65a2.911 2.911 0 0 1-.352-5.8 833.903 833.903 0 0 1 20.383-2.231 2.883 2.883 0 0 1 3.181 2.614 2.91 2.91 0 0 1-2.612 3.179 820.415 820.415 0 0 0-20.241 2.217c-.12.014-.243.021-.359.021zm40.664-4.027a2.914 2.914 0 0 1-2.899-2.676 2.912 2.912 0 0 1 2.669-3.135 1755.72 1755.72 0 0 1 20.403-1.518c1.555-.098 2.993 1.099 3.104 2.703a2.913 2.913 0 0 1-2.706 3.104c-6.913.478-13.7.978-20.335 1.512-.08.007-.16.01-.236.01zm40.752-2.837a2.91 2.91 0 0 1-.176-5.816c6.714-.412 13.519-.81 20.403-1.204 1.552-.065 2.979 1.134 3.07 2.74a2.91 2.91 0 0 1-2.74 3.073c-6.873.391-13.672.789-20.375 1.201a2.859 2.859 0 0 1-.182.006zm40.777-2.342a2.908 2.908 0 0 1-2.902-2.75 2.91 2.91 0 0 1 2.743-3.067l20.389-1.131c1.546-.074 2.979 1.138 3.067 2.744a2.908 2.908 0 0 1-2.743 3.068l-20.389 1.131a3.124 3.124 0 0 1-.165.005zm40.775-2.3a2.91 2.91 0 0 1-2.902-2.74 2.906 2.906 0 0 1 2.734-3.075c6.771-.399 13.562-.813 20.358-1.248 1.583-.122 2.985 1.114 3.09 2.719a2.91 2.91 0 0 1-2.72 3.091c-6.802.435-13.604.849-20.386 1.248a2.545 2.545 0 0 1-.174.005zm40.743-2.616a2.908 2.908 0 0 1-2.899-2.705 2.91 2.91 0 0 1 2.695-3.11c6.793-.482 13.575-.992 20.332-1.536 1.637-.145 3.001 1.067 3.135 2.666a2.912 2.912 0 0 1-2.669 3.135c-6.773.547-13.573 1.057-20.383 1.542a3.044 3.044 0 0 1-.211.008zm40.704-3.292a2.911 2.911 0 0 1-.264-5.809c6.808-.63 13.57-1.3 20.272-2.02 1.651-.178 3.033.986 3.203 2.584s-.983 3.033-2.584 3.203c-6.731.722-13.521 1.396-20.357 2.028a2.48 2.48 0 0 1-.27.014zm40.593-4.384a2.91 2.91 0 0 1-.361-5.799 904.683 904.683 0 0 0 20.158-2.759 2.912 2.912 0 0 1 .859 5.759c-6.475.962-13.3 1.896-20.289 2.776a2.904 2.904 0 0 1-.367.023zm40.379-6.038a2.91 2.91 0 0 1-.504-5.777 592.632 592.632 0 0 0 19.937-3.871c1.558-.343 3.115.667 3.454 2.24a2.913 2.913 0 0 1-2.243 3.453 591.04 591.04 0 0 1-20.136 3.911c-.169.03-.34.044-.508.044zm39.902-8.554a2.912 2.912 0 0 1-.728-5.731 357.86 357.86 0 0 0 19.442-5.6 2.91 2.91 0 0 1 1.779 5.543c-6.199 1.987-12.848 3.903-19.761 5.693-.243.064-.49.095-.732.095zm38.774-12.558a2.912 2.912 0 0 1-1.095-5.61c6.521-2.648 12.637-5.487 18.177-8.439a2.91 2.91 0 1 1 2.741 5.136c-5.719 3.047-12.021 5.973-18.729 8.698a2.904 2.904 0 0 1-1.094.215zm35.653-19.32a2.903 2.903 0 0 1-2.342-1.18 2.91 2.91 0 0 1 .608-4.072c5.546-4.102 10.426-8.516 14.499-13.118a2.917 2.917 0 0 1 4.11-.249 2.912 2.912 0 0 1 .25 4.109c-4.346 4.905-9.525 9.595-15.397 13.939a2.9 2.9 0 0 1-1.728.571zm-240.632-4.626c-3.701 0-7.436-.099-11.1-.297a2.912 2.912 0 0 1-2.751-3.063c.088-1.607 1.498-2.831 3.064-2.75 6.611.357 13.396.38 20.067.078 1.501-.06 2.968 1.17 3.039 2.776a2.911 2.911 0 0 1-2.777 3.04c-3.164.144-6.373.216-9.542.216zm29.652-2.078a2.911 2.911 0 0 1-.395-5.794 235.848 235.848 0 0 0 19.76-3.614 2.899 2.899 0 0 1 3.485 2.194 2.911 2.911 0 0 1-2.194 3.482 242.16 242.16 0 0 1-20.255 3.705c-.134.019-.27.027-.401.027zm-60.842-.345c-.151 0-.304-.011-.458-.036a200.423 200.423 0 0 1-20.213-4.274 2.912 2.912 0 0 1-2.066-3.562c.415-1.555 2.038-2.469 3.562-2.064a194.987 194.987 0 0 0 19.627 4.149 2.908 2.908 0 0 1 2.419 3.328 2.91 2.91 0 0 1-2.871 2.459zm100.505-8.588a2.913 2.913 0 0 1-2.78-2.051 2.91 2.91 0 0 1 1.919-3.641 290.253 290.253 0 0 0 19.03-6.647 2.911 2.911 0 1 1 2.109 5.426 295.583 295.583 0 0 1-19.417 6.781 2.896 2.896 0 0 1-.861.132zm-139.81-1.859c-.344 0-.691-.061-1.032-.191a213.814 213.814 0 0 1-18.925-8.246 2.909 2.909 0 0 1-1.319-3.898 2.918 2.918 0 0 1 3.9-1.32 207.35 207.35 0 0 0 18.407 8.021 2.911 2.911 0 0 1-1.031 5.634zm337.22-12.632a2.909 2.909 0 0 1-2.618-4.174c2.749-5.708 4.639-11.835 5.617-18.21a2.909 2.909 0 1 1 5.753.881 70.118 70.118 0 0 1-6.128 19.856 2.91 2.91 0 0 1-2.624 1.647zm-159.44-.199a2.912 2.912 0 0 1-1.226-5.554c5.989-2.77 12.075-5.8 18.089-9.005a2.91 2.91 0 1 1 2.741 5.136 367.807 367.807 0 0 1-18.385 9.153c-.395.183-.81.27-1.219.27zm-214.271-5.151a2.905 2.905 0 0 1-1.518-.428 251.184 251.184 0 0 1-17.106-11.488 2.912 2.912 0 0 1 3.44-4.696 244.635 244.635 0 0 0 16.708 11.218 2.91 2.91 0 0 1 .961 4.002 2.907 2.907 0 0 1-2.485 1.392zm250.239-13.973a2.91 2.91 0 0 1-1.5-5.407 445.119 445.119 0 0 0 17.117-10.818 2.904 2.904 0 0 1 4.033.814 2.908 2.908 0 0 1-.816 4.035 449.543 449.543 0 0 1-17.339 10.961 2.905 2.905 0 0 1-1.495.415zm-283.112-10.024a2.902 2.902 0 0 1-1.89-.696 310.074 310.074 0 0 1-15.176-13.871 2.91 2.91 0 1 1 4.065-4.167 301.887 301.887 0 0 0 14.892 13.61 2.911 2.911 0 0 1-1.891 5.124zm412.812-9.975a2.909 2.909 0 0 1-2.891-2.605c-.651-6.164-1.998-12.689-4.008-19.392a2.911 2.911 0 0 1 1.953-3.624 2.906 2.906 0 0 1 3.624 1.953c2.112 7.051 3.53 13.931 4.218 20.453a2.91 2.91 0 0 1-2.896 3.215zm-95.725-2.523a2.909 2.909 0 0 1-1.711-5.267 539.333 539.333 0 0 0 16.182-12.223 2.91 2.91 0 1 1 3.592 4.579 542.992 542.992 0 0 1-16.358 12.356 2.894 2.894 0 0 1-1.705.555zm-346.342-15.825c-.779 0-1.555-.31-2.129-.925a415.658 415.658 0 0 1-13.632-15.326 2.91 2.91 0 1 1 4.446-3.758 408.622 408.622 0 0 0 13.445 15.113 2.911 2.911 0 0 1-2.13 4.896zm378.428-9.335a2.91 2.91 0 0 1-1.879-5.137 634.716 634.716 0 0 0 15.307-13.333 2.907 2.907 0 0 1 4.11.219 2.91 2.91 0 0 1-.216 4.11 644.205 644.205 0 0 1-15.449 13.455 2.888 2.888 0 0 1-1.873.686zm52.357-11.29a2.913 2.913 0 0 1-2.658-1.72c-2.595-5.779-5.662-11.802-9.121-17.905a2.912 2.912 0 0 1 5.065-2.871c3.547 6.26 6.699 12.448 9.366 18.391a2.91 2.91 0 0 1-1.464 3.847c-.386.176-.79.258-1.188.258zm-457.006-10.53a2.906 2.906 0 0 1-2.336-1.171c-4.252-5.702-8.192-11.398-11.705-16.931a2.91 2.91 0 1 1 4.912-3.121c3.439 5.411 7.294 10.986 11.461 16.573a2.909 2.909 0 0 1-2.332 4.65zm434.94-5.402a2.91 2.91 0 0 1-2.009-5.015 737.921 737.921 0 0 0 14.485-14.221 2.91 2.91 0 1 1 4.133 4.096 724.945 724.945 0 0 1-14.599 14.334 2.898 2.898 0 0 1-2.01.806zm2.201-19.588c-.947 0-1.876-.46-2.433-1.31a305.774 305.774 0 0 0-11.64-16.475 2.91 2.91 0 1 1 4.639-3.516 309.9 309.9 0 0 1 11.861 16.79 2.911 2.911 0 0 1-2.427 4.511zm26.517-9.383a2.891 2.891 0 0 1-1.993-.79 2.908 2.908 0 0 1-.128-4.113 812.15 812.15 0 0 0 13.766-15.026 2.912 2.912 0 0 1 4.343 3.88 820.617 820.617 0 0 1-13.868 15.132 2.9 2.9 0 0 1-2.12.917zm-485.354-.053a2.91 2.91 0 0 1-2.598-1.593c-3.258-6.421-6.032-12.818-8.243-19.013a2.91 2.91 0 1 1 5.48-1.959c2.132 5.965 4.807 12.134 7.953 18.337a2.91 2.91 0 0 1-2.592 4.228zm434.278-23.029a2.896 2.896 0 0 1-2.203-1.009 323.338 323.338 0 0 0-13.678-14.863 2.912 2.912 0 0 1 .04-4.117 2.908 2.908 0 0 1 4.116.043 326.502 326.502 0 0 1 13.928 15.135 2.908 2.908 0 0 1-2.203 4.811zm78.298-7.369a2.914 2.914 0 0 1-2.217-4.798 893.699 893.699 0 0 0 13.001-15.632 2.913 2.913 0 0 1 4.52 3.672 909.89 909.89 0 0 1-13.087 15.733 2.909 2.909 0 0 1-2.217 1.025zm-525.958-7.924a2.913 2.913 0 0 1-2.865-2.407c-1.006-5.738-1.518-11.404-1.518-16.844 0-1.371.031-2.727.094-4.07.074-1.607 1.461-2.815 3.042-2.774a2.91 2.91 0 0 1 2.774 3.041 83.804 83.804 0 0 0-.088 3.803c0 5.104.48 10.432 1.433 15.838a2.914 2.914 0 0 1-2.872 3.413zm419.153-13.822a2.904 2.904 0 0 1-1.953-.75 343.9 343.9 0 0 0-15.389-13.097 2.91 2.91 0 1 1 3.638-4.542 350.056 350.056 0 0 1 15.656 13.318 2.914 2.914 0 0 1 .208 4.112 2.907 2.907 0 0 1-2.16.959zm132.528-9.918a2.91 2.91 0 0 1-2.296-4.694c4.147-5.348 8.28-10.8 12.282-16.205a2.915 2.915 0 0 1 4.07-.607 2.912 2.912 0 0 1 .608 4.072 916.047 916.047 0 0 1-12.362 16.307 2.9 2.9 0 0 1-2.302 1.127zm-164.315-15.577a2.898 2.898 0 0 1-1.686-.54 370.792 370.792 0 0 0-16.79-11.27 2.911 2.911 0 1 1 3.109-4.92 376.708 376.708 0 0 1 17.057 11.449 2.91 2.91 0 0 1-1.69 5.281zm-385.172-.92a2.91 2.91 0 0 1-2.769-3.808c2.149-6.644 5.239-13.025 9.181-18.966a2.91 2.91 0 1 1 4.849 3.218c-3.647 5.499-6.506 11.401-8.493 17.542a2.912 2.912 0 0 1-2.768 2.014zm573.773-16.286a2.907 2.907 0 0 1-2.373-4.59 920.156 920.156 0 0 0 11.554-16.736 2.91 2.91 0 0 1 4.826 3.255 913.389 913.389 0 0 1-11.628 16.842 2.906 2.906 0 0 1-2.379 1.229zm-223.04-4.585c-.48 0-.969-.119-1.421-.371a392.728 392.728 0 0 0-17.905-9.434 2.911 2.911 0 0 1 2.581-5.219 401.274 401.274 0 0 1 18.169 9.573 2.909 2.909 0 0 1 1.117 3.962 2.9 2.9 0 0 1-2.541 1.489zm-328.673-12.796a2.91 2.91 0 0 1-1.979-5.046c4.892-4.529 10.489-8.775 16.637-12.618a2.907 2.907 0 0 1 4.011.927 2.91 2.91 0 0 1-.924 4.011c-5.841 3.65-11.145 7.67-15.767 11.952-.56.518-1.27.774-1.978.774zm292.137-5.283c-.387 0-.779-.078-1.154-.242a414.682 414.682 0 0 0-18.757-7.591 2.911 2.911 0 0 1 2.052-5.449 420.427 420.427 0 0 1 19.019 7.699 2.91 2.91 0 0 1 1.512 3.829 2.91 2.91 0 0 1-2.672 1.754zm282.384-11.172a2.912 2.912 0 0 1-2.447-4.483 847.18 847.18 0 0 0 10.778-17.244 2.91 2.91 0 1 1 4.974 3.024 854.988 854.988 0 0 1-10.852 17.363 2.908 2.908 0 0 1-2.453 1.34zm-320.507-3.186c-.296 0-.597-.045-.893-.142a423.422 423.422 0 0 0-19.408-5.74 2.91 2.91 0 0 1-2.052-3.567 2.897 2.897 0 0 1 3.57-2.052 426.293 426.293 0 0 1 19.675 5.82 2.912 2.912 0 0 1-.892 5.681zm-219.783-2.091a2.912 2.912 0 0 1-1.171-5.578c6.074-2.661 12.606-5.071 19.417-7.164a2.912 2.912 0 0 1 1.711 5.566c-6.6 2.027-12.922 4.359-18.792 6.931-.38.165-.775.245-1.165.245zm180.446-8.524c-.205 0-.415-.021-.625-.067a411.046 411.046 0 0 0-19.866-3.834 2.91 2.91 0 0 1-2.39-3.351 2.905 2.905 0 0 1 3.351-2.391 418.455 418.455 0 0 1 20.15 3.889 2.911 2.911 0 0 1-.62 5.754zm-141.615-3.561a2.915 2.915 0 0 1-2.848-2.319 2.912 2.912 0 0 1 2.26-3.441 261.774 261.774 0 0 1 20.326-3.36c1.66-.203 3.05.932 3.252 2.524a2.91 2.91 0 0 1-2.524 3.252 255.713 255.713 0 0 0-19.871 3.283 2.96 2.96 0 0 1-.595.061zm101.427-3.161a2.76 2.76 0 0 1-.338-.02 381.735 381.735 0 0 0-20.141-1.793 2.91 2.91 0 0 1 .358-5.81c6.728.418 13.609 1.03 20.454 1.822a2.91 2.91 0 0 1-.333 5.801zm-61.036-1.993a2.91 2.91 0 0 1-.162-5.817 333.134 333.134 0 0 1 18.678-.519l1.87.004a2.909 2.909 0 0 1 2.896 2.923 2.912 2.912 0 0 1-2.911 2.898h-.014l-1.842-.004c-6.188 0-12.359.172-18.348.51-.056.003-.11.005-.167.005zm482.267-12.354a2.91 2.91 0 0 1-2.521-4.361 728.18 728.18 0 0 0 9.877-17.765 2.91 2.91 0 1 1 5.128 2.754 728.1 728.1 0 0 1-9.957 17.91 2.907 2.907 0 0 1-2.527 1.462zm19.309-35.962a2.88 2.88 0 0 1-1.293-.306 2.909 2.909 0 0 1-1.31-3.903 538.474 538.474 0 0 0 8.712-18.339 2.912 2.912 0 0 1 3.849-1.457 2.908 2.908 0 0 1 1.455 3.85 544.406 544.406 0 0 1-8.803 18.541 2.915 2.915 0 0 1-2.61 1.614zm16.733-37.234a2.911 2.911 0 0 1-2.709-3.98c2.632-6.673 4.926-13.077 6.816-19.034a2.909 2.909 0 0 1 3.655-1.893 2.91 2.91 0 0 1 1.893 3.655c-1.93 6.083-4.269 12.612-6.947 19.407a2.912 2.912 0 0 1-2.708 1.845zm12.026-38.962a2.913 2.913 0 0 1-2.863-3.459c1.06-5.53 1.6-10.46 1.603-14.654a39.77 39.77 0 0 0-.261-4.698 2.911 2.911 0 0 1 2.544-3.236c1.668-.192 3.044.948 3.238 2.543.199 1.674.301 3.488.301 5.393-.003 4.562-.577 9.86-1.706 15.75a2.91 2.91 0 0 1-2.856 2.361z"/><path fill="#636363" d="M3322.354 1474.762c-.393-1.503-.819-2.854-1.282-4.008-2.828-7.058-5.807-3.475-6.706 6.014-15.693-12.903-36.769-24.306-39.126-6.178-2.236 17.195 27.915 21.591 39.19 20.021.163 1.969.39 4.021.688 6.149-13.136-2.135-66.583 12.411-58.134 40.095 8.724 28.589 41.072 1.013 61.537-23.956a122.867 122.867 0 0 0 4.991 14.31c1.344 3.194 2.202-1.69 2.432-9.87 14.569 14.364 44.712 33.071 58.818 14.763 19.052-24.726-26.744-34.953-59.405-36.513a197.746 197.746 0 0 0-.552-6.135c20.698-4.706 47.735-16.066 33.083-29.645-10.745-9.958-27.44 4.223-35.534 14.953z"/><path fill="#f9ae93" d="m1050.364 2438.859-112.23-14.88-14.76-1.96-18.61-.12s.34 1.51-25.94-11.2c-26.3-12.7-1.61-56.14-1.61-56.14l55.64 2.18 50.35-2.44 65.8-3.18c-2.859 30.19-2.15 60.87 1.36 87.74z"/><path fill="#fff" d="M878.819 2410.699c26.288 12.711 25.948 11.202 25.948 11.202l18.607.115c-3.035-13.347-8.259-46.75 9.476-65.278l-24.548-.967-31.093-1.215c.001 0-24.688 43.443 1.61 56.143z"/><path fill="#dbeafc" d="M878.819 2410.699c26.288 12.711 25.948 11.202 25.948 11.202l18.607.115s-13.585-2.092-26.716-16.381c-12.976-14.144-3.572-42.779 11.644-49.864l-31.093-1.215c.001 0-24.688 43.443 1.61 56.143z"/><path fill="#002760" d="M836.982 2452.018c6.886 5.767 6.756 22.054 3.209 42.5-.842 4.827-.781 10.101-.19 15.345.937 8.571 3.276 17.049 5.35 23.343 27.494-6.418 40.682-72.905 43.745-81.22 3.46-9.344 27.354-13.244 25.384-19.715-1.959-6.46-35.297-21.138-34.834-47.02.119-6.581 1.065-11.507 2.59-15.243 2.225-5.417 5.67-8.312 9.643-10.063.011-.011.021-.011.031-.022 4.077-1.794 8.691-2.4 13.067-3.274 11.631-2.351 20.018-12.753-.695-14.508 0 0-51.478-5.195-58.04-11.857a34.858 34.858 0 0 0-1.607-1.538c-9.667 11.703-1.018 32.227-1.091 41.59-.076 10.737-11.845 5.297-8.28 18.558 3.565 13.272 7.816 16.963 4.955 37.468-2.862 20.495-10.112 19.878-3.237 25.656z"/><path fill="#fff" d="M809.146 2355.94c6.381 22.396 14.443 45.676 12.695 69.977-1.534 21.377-1.408 71.827 4.427 92.225.794 2.797 1.693 5.029 2.718 6.542 2.34 3.47 4.412 6.119 6.195 8.146 3.582 1.061 6.969 1.125 10.17.378-2.074-6.294-4.414-14.772-5.35-23.343-.591-5.244-.652-10.519.19-15.345 3.547-20.446 3.677-36.733-3.209-42.5-6.875-5.778.375-5.161 3.237-25.656 2.861-20.505-1.39-24.196-4.955-37.468-3.565-13.261 8.204-7.822 8.28-18.558.073-9.363-8.577-29.887 1.091-41.59-4.282-3.924-12.89-10.72-21.689-15.7-13.582 6.073-19.305 23.593-13.8 42.892z"/><path fill="#001f44" d="M796.791 2398.609c15.921 21.352 16.843 41.147 14.777 59.03-1.589 13.753-7.756 44.057 5.356 62.446 3.935 5.529 9.609 9.97 17.665 12.575.187.057.395.124.592.17-1.782-2.027-3.854-4.675-6.195-8.146-1.025-1.512-1.924-3.745-2.718-6.542-5.835-20.398-5.961-70.848-4.427-92.225 1.748-24.301-6.314-47.581-12.695-69.977-5.505-19.3.218-36.819 13.8-42.894-9.754-5.506-19.72-8.808-24.2-3.458-9.115 10.897-17.886 67.669-1.955 89.021zM840.001 2509.864c.937 8.571 3.276 17.049 5.35 23.343 27.494-6.418 40.682-72.905 43.745-81.22 3.46-9.344 27.354-13.244 25.384-19.715-1.959-6.46-35.297-21.138-34.834-47.02.119-6.581 1.065-11.507 2.59-15.243-8.362 13.261-10.131 32.975-3.426 45.123 5.815 10.536-10.257 70.403-38.809 94.732z"/><path fill="#fff" d="M876.357 2500.143c.922.005 1.926-.132 3.013-.413 1.138-.293 4.599-1.187 5.55-4.26.98-3.169-1.258-6.045-3.422-8.826-.911-1.171-1.854-2.383-2.393-3.419-1.263-2.43-1.731-6.458-.415-8.581.875-1.412 2.632-1.98 5.223-1.69 2.207.248 4.905.251 6.206-1.939 1.432-2.41-.042-5.01-1.603-7.763-1.236-2.179-2.927-5.164-2.118-6.512 1.346-2.239 5.228-4.585 7.548-5.986 2.397-1.448 4.29-2.592 3.424-5.034-.915-2.583-2.974-2.13-8.479-.919-1.404.309-2.305 1.774-2.011 3.272.043.222.111.433.199.629-1.978 1.424-3.899 3.114-5.056 5.04-2.553 4.248.108 8.941 2.05 12.367.23.406.512.903.764 1.375a16.87 16.87 0 0 1-.395-.039c-5.816-.653-8.696 1.89-10.088 4.137-2.582 4.168-1.849 10.358.21 14.32.775 1.492 1.877 2.907 2.941 4.275.794 1.021 2.067 2.657 2.381 3.501-.245.156-.759.414-1.751.67-1.647.425-2.524.256-2.775-.017-.461-.502-.458-2.272-.148-3.519.366-1.473-.452-2.994-1.832-3.396-1.378-.4-2.8.454-3.179 1.923-.15.579-1.38 5.745 1.433 8.84 1.178 1.296 2.761 1.953 4.723 1.964z"/><path fill="#f6816b" d="m1050.364 2438.859-112.23-14.88c9.55-14.47 19.13-48.04 45.07-69.68l65.8-3.18c-2.859 30.19-2.15 60.87 1.36 87.74z"/><path fill="#001f44" d="M1006.996 2353.784c11.317 58.372 9.376 93.299 12.772 96.21 3.396 2.911 244.737 15.41 247.648-13.155 2.911-28.565-13.098-118.795-108.422-118.795s-151.998 35.74-151.998 35.74z"/><path fill="#f9ae93" d="m960.554 2529.139-108.9-14.44-28.61-3.79-18.61-.11s.34 1.51-25.95-11.2c-26.3-12.7-1.61-56.15-1.61-56.15l55.64 2.18 108.38-5.25 12.36-.59 1.16-.06c-.03.19-.05.37-.07.56-4.13 30.91.01 62.54 6.21 88.85z"/><path fill="#fff" d="M778.484 2499.595c26.288 12.711 25.948 11.202 25.948 11.202l18.607.115c-3.035-13.347-8.259-46.75 9.476-65.278l-24.548-.967-31.093-1.215c.001 0-24.688 43.442 1.61 56.143z"/><path fill="#dbeafc" d="M778.484 2499.595c26.288 12.711 25.948 11.202 25.948 11.202l18.607.115s-13.585-2.092-26.716-16.381c-12.976-14.144-3.572-42.779 11.644-49.864l-31.093-1.215c.001 0-24.688 43.442 1.61 56.143z"/><path fill="#002760" d="M736.647 2540.914c6.885 5.767 6.756 22.054 3.208 42.5-.842 4.827-.781 10.101-.19 15.345.937 8.571 3.276 17.049 5.35 23.343 27.494-6.418 40.682-72.905 43.745-81.22 3.46-9.344 27.354-13.244 25.384-19.715-1.959-6.46-35.297-21.138-34.834-47.02.119-6.581 1.065-11.507 2.59-15.243 2.225-5.417 5.67-8.312 9.643-10.063.011-.011.021-.011.031-.022 4.077-1.794 8.691-2.4 13.067-3.274 11.631-2.351 20.018-12.753-.695-14.508 0 0-51.478-5.195-58.04-11.857a34.858 34.858 0 0 0-1.607-1.538c-9.667 11.702-1.018 32.227-1.091 41.59-.076 10.737-11.845 5.297-8.28 18.558 3.565 13.272 7.817 16.963 4.955 37.468-2.861 20.494-10.111 19.878-3.236 25.656z"/><path fill="#fff" d="M708.811 2444.836c6.381 22.396 14.443 45.676 12.695 69.977-1.534 21.377-1.408 71.827 4.427 92.225.794 2.797 1.693 5.029 2.718 6.542 2.34 3.47 4.412 6.119 6.195 8.145 3.582 1.062 6.969 1.125 10.17.378-2.074-6.294-4.414-14.772-5.35-23.343-.591-5.244-.652-10.519.19-15.345 3.547-20.446 3.677-36.733-3.208-42.5-6.875-5.778.375-5.162 3.237-25.656 2.862-20.505-1.39-24.196-4.955-37.468-3.565-13.261 8.205-7.822 8.28-18.558.073-9.363-8.577-29.887 1.091-41.59-4.282-3.924-12.89-10.72-21.689-15.7-13.583 6.074-19.306 23.593-13.801 42.893z"/><path fill="#001f44" d="M696.456 2487.504c15.921 21.352 16.843 41.147 14.777 59.03-1.589 13.753-7.756 44.057 5.356 62.446 3.935 5.529 9.609 9.97 17.665 12.575.187.056.395.124.592.169-1.782-2.027-3.854-4.675-6.195-8.145-1.025-1.513-1.924-3.745-2.718-6.542-5.835-20.398-5.961-70.848-4.427-92.225 1.748-24.301-6.314-47.581-12.695-69.977-5.505-19.3.218-36.819 13.8-42.893-9.754-5.506-19.72-8.808-24.2-3.459-9.115 10.898-17.886 67.669-1.955 89.021zM739.666 2598.76c.937 8.571 3.276 17.049 5.35 23.343 27.494-6.418 40.682-72.905 43.745-81.22 3.46-9.344 27.354-13.244 25.384-19.715-1.959-6.46-35.297-21.138-34.834-47.02.119-6.581 1.065-11.507 2.59-15.243-8.362 13.261-10.131 32.975-3.426 45.123 5.815 10.535-10.257 70.402-38.809 94.732z"/><path fill="#fff" d="M776.022 2589.038c.922.006 1.926-.132 3.013-.413 1.137-.293 4.599-1.187 5.55-4.26.98-3.169-1.258-6.045-3.422-8.826-.911-1.171-1.854-2.383-2.393-3.419-1.263-2.429-1.731-6.457-.415-8.581.875-1.412 2.632-1.98 5.223-1.69 2.207.248 4.905.251 6.206-1.939 1.432-2.41-.042-5.01-1.603-7.763-1.235-2.179-2.927-5.164-2.118-6.512 1.345-2.239 5.228-4.585 7.548-5.986 2.397-1.448 4.29-2.592 3.424-5.035-.915-2.583-2.975-2.13-8.479-.919-1.404.309-2.305 1.774-2.011 3.272.043.222.111.433.199.629-1.978 1.424-3.899 3.114-5.056 5.04-2.553 4.248.108 8.941 2.05 12.367.23.406.512.903.764 1.375a16.87 16.87 0 0 1-.395-.039c-5.816-.653-8.696 1.89-10.088 4.137-2.582 4.167-1.849 10.358.21 14.32.775 1.492 1.877 2.907 2.941 4.275.794 1.021 2.067 2.656 2.381 3.501-.245.156-.759.414-1.751.67-1.647.425-2.524.256-2.775-.017-.461-.502-.458-2.272-.148-3.519.366-1.473-.452-2.994-1.832-3.396-1.378-.4-2.8.454-3.18 1.923-.15.579-1.38 5.745 1.433 8.84 1.179 1.297 2.762 1.954 4.724 1.965z"/><path fill="#002760" d="M1540.264 2548.709c-129.35 32.05-351.44 18.2-533.15-2.21 1.43-24.1-3.37-94.19-8.58-117.85 110.28-2.07 210.9-3.87 210.9-3.87-119.809-7.53-203.21-50.54-251.09-110.32-50.99-63.66-61.69-146.33-33.16-225.4 0 0 .2-.05.64-.14 132.85-28.51 284.97 54.81 287 55.93.01.01.02.01.02.01.74-14.76 20.58-37.78 39.96-56.86 18.8-18.54 37.17-33.37 37.17-33.37 5.09 56.76-18.19 122.98-18.19 122.98 31.76.71 90.04 42.76 90.95 43.41l.01.01s114.21 71.05 190.15 148.21c-32.28 38.4-49.019 141.87-12.63 179.47z"/><path fill="#001f44" d="M997.453 2495.587a2.911 2.911 0 0 1-.068-5.82l1.086-.026c1.708.037 2.939 1.242 2.973 2.847a2.913 2.913 0 0 1-2.848 2.975l-1.074.023-.069.001zm21.639-.55a2.911 2.911 0 0 1-.077-5.82c5.821-.161 12.694-.358 20.468-.595 1.512-.02 2.951 1.212 2.999 2.821a2.912 2.912 0 0 1-2.823 2.998c-7.78.237-14.658.435-20.485.595l-.082.001zm40.934-1.249a2.908 2.908 0 0 1-2.905-2.813 2.909 2.909 0 0 1 2.811-3.007 7703.21 7703.21 0 0 0 20.431-.711c1.555-.068 2.956 1.197 3.013 2.804a2.91 2.91 0 0 1-2.803 3.014c-7.166.259-13.999.495-20.448.711-.031.002-.065.002-.099.002zm40.869-1.475a2.908 2.908 0 0 1-2.905-2.797 2.908 2.908 0 0 1 2.794-3.021c6.606-.257 13.422-.53 20.411-.822 1.637-.033 2.965 1.18 3.03 2.787a2.91 2.91 0 0 1-2.786 3.029c-6.995.291-13.817.564-20.429.822l-.115.002zm40.834-1.702a2.91 2.91 0 0 1-.128-5.818c6.691-.299 13.499-.613 20.4-.942a2.92 2.92 0 0 1 3.047 2.769 2.911 2.911 0 0 1-2.768 3.047c-6.907.33-13.72.644-20.417.942l-.134.002zm40.812-1.95a2.911 2.911 0 0 1-.145-5.817 5411.35 5411.35 0 0 0 20.386-1.079c1.555-.108 2.979 1.143 3.064 2.747a2.91 2.91 0 0 1-2.746 3.065c-6.847.375-13.661.735-20.409 1.079a1.879 1.879 0 0 1-.15.005zm40.792-2.237a2.91 2.91 0 0 1-.168-5.815c6.782-.399 13.581-.813 20.372-1.242 1.58-.111 2.987 1.116 3.09 2.722a2.91 2.91 0 0 1-2.72 3.088c-6.802.429-13.607.843-20.4 1.242a2.563 2.563 0 0 1-.174.005zm40.751-2.579a2.91 2.91 0 0 1-.196-5.815c6.822-.466 13.615-.948 20.36-1.446a2.91 2.91 0 1 1 .426 5.805c-6.751.5-13.556.982-20.389 1.448a2.722 2.722 0 0 1-.201.008zm40.744-3.017a2.91 2.91 0 0 1-.23-5.811c6.865-.553 13.649-1.124 20.332-1.714a2.913 2.913 0 0 1 3.155 2.644 2.91 2.91 0 0 1-2.643 3.155 2602.05 2602.05 0 0 1-20.377 1.717c-.081.006-.16.009-.237.009zm40.698-3.605a2.912 2.912 0 0 1-.282-5.807c6.927-.677 13.701-1.377 20.292-2.099a2.898 2.898 0 0 1 3.212 2.577 2.912 2.912 0 0 1-2.575 3.211 1762.77 1762.77 0 0 1-20.36 2.105 3.108 3.108 0 0 1-.287.013zm40.624-4.475a2.912 2.912 0 0 1-.358-5.799 994.174 994.174 0 0 0 20.201-2.727c1.578-.244 3.07.868 3.3 2.457a2.91 2.91 0 0 1-2.459 3.302 970.334 970.334 0 0 1-20.321 2.744 2.798 2.798 0 0 1-.363.023zm40.453-5.993a2.911 2.911 0 0 1-.511-5.776c7.416-1.329 14.104-2.7 19.883-4.076a2.92 2.92 0 0 1 3.505 2.156 2.91 2.91 0 0 1-2.157 3.506c-5.884 1.403-12.68 2.797-20.201 4.144a2.97 2.97 0 0 1-.519.046zm39.598-10.02a2.911 2.911 0 0 1-1.095-5.609c9.639-3.907 10.386-6.803 10.386-7.598 0-.399-.136-.832-.418-1.319a2.91 2.91 0 1 1 5.048-2.902c.79 1.376 1.191 2.795 1.191 4.221 0 4.917-4.585 9.168-14.019 12.993a2.901 2.901 0 0 1-1.093.214zm-4.752-25.343a2.887 2.887 0 0 1-1.578-.468c-5.074-3.283-10.855-6.918-17.222-10.882a2.91 2.91 0 0 1 3.076-4.943c6.401 3.984 12.211 7.639 17.308 10.939a2.91 2.91 0 0 1-1.584 5.354zm-34.627-21.671a2.899 2.899 0 0 1-1.529-.436 5735.727 5735.727 0 0 1-17.353-10.784 2.912 2.912 0 0 1 3.087-4.938 4922.95 4922.95 0 0 0 17.33 10.773 2.914 2.914 0 0 1 .944 4.008 2.914 2.914 0 0 1-2.479 1.377zm-34.618-21.66a2.902 2.902 0 0 1-1.561-.455 1969.382 1969.382 0 0 1-17.194-11.061 2.908 2.908 0 0 1-.85-4.026 2.906 2.906 0 0 1 4.028-.851 1934.16 1934.16 0 0 0 17.143 11.027 2.909 2.909 0 0 1 .892 4.018 2.908 2.908 0 0 1-2.458 1.348zm-34.197-22.292a2.89 2.89 0 0 1-1.617-.493 1323.13 1323.13 0 0 1-16.907-11.516 2.91 2.91 0 0 1-.736-4.049 2.905 2.905 0 0 1 4.051-.735 1311.48 1311.48 0 0 0 16.833 11.465 2.913 2.913 0 0 1 .799 4.038 2.915 2.915 0 0 1-2.423 1.29zm-33.544-23.261a2.894 2.894 0 0 1-1.697-.549 976.172 976.172 0 0 1-16.489-12.123 2.911 2.911 0 0 1 3.496-4.653 988.122 988.122 0 0 0 16.392 12.052 2.908 2.908 0 0 1 .662 4.062 2.905 2.905 0 0 1-2.364 1.211zm-32.625-24.552a2.899 2.899 0 0 1-1.802-.627 751.904 751.904 0 0 1-15.892-12.899 2.91 2.91 0 1 1 3.729-4.468 740.711 740.711 0 0 0 15.773 12.799 2.913 2.913 0 0 1-1.808 5.195zm-31.287-26.17a2.895 2.895 0 0 1-1.936-.738 542.807 542.807 0 0 1-15.059-13.919 2.91 2.91 0 0 1 4.03-4.199 541.484 541.484 0 0 0 14.9 13.772 2.913 2.913 0 0 1 .239 4.109 2.906 2.906 0 0 1-2.174.975zm-29.379-28.291a2.898 2.898 0 0 1-2.106-.904 382.175 382.175 0 0 1-13.78-15.245 2.91 2.91 0 1 1 4.423-3.783 379.447 379.447 0 0 0 13.57 15.015 2.908 2.908 0 0 1-2.107 4.917zm-26.418-31.042a2.907 2.907 0 0 1-2.336-1.17c-4.255-5.706-8.183-11.424-11.668-16.992a2.91 2.91 0 0 1 4.935-3.09c3.402 5.436 7.237 11.02 11.401 16.6a2.912 2.912 0 0 1-2.332 4.652zm-21.477-34.565a2.912 2.912 0 0 1-2.615-1.627c-3.152-6.413-5.827-12.846-7.956-19.125a2.913 2.913 0 0 1 1.822-3.691c1.523-.506 3.178.302 3.692 1.823 2.047 6.039 4.627 12.238 7.666 18.426a2.912 2.912 0 0 1-2.609 4.194zm-12.828-38.451a2.912 2.912 0 0 1-2.868-2.427c-1.04-6.185-1.566-12.385-1.566-18.429-.003-.772.006-1.555.023-2.338a2.913 2.913 0 0 1 2.976-2.844 2.912 2.912 0 0 1 2.845 2.975 80.39 80.39 0 0 0-.023 2.196c0 5.733.5 11.608 1.487 17.475a2.912 2.912 0 0 1-2.874 3.392zm1.006-40.401a2.912 2.912 0 0 1-2.84-3.559c1.524-6.671 3.755-13.341 6.637-19.824a2.912 2.912 0 0 1 5.321 2.365c-2.732 6.14-4.844 12.45-6.285 18.756a2.907 2.907 0 0 1-2.833 2.262zM1362.734 2221.019c-.98-.51-69.73-36.42-99.27-29.14 0 0 7.61-68.24-10.66-103.88 18.8-18.54 37.17-33.37 37.17-33.37 5.09 56.76-18.19 122.98-18.19 122.98 31.76.71 90.04 42.76 90.95 43.41z"/><path fill="#0049a7" d="M1543.2 2547.986a90.12 90.12 0 0 1-2.939.728c-36.383-37.605-19.647-141.079 12.632-179.471 70.553 71.689 108.043 148.617-9.693 178.743z"/><path fill="#f6816b" d="m960.554 2529.139-108.9-14.44c21-3.78 47.61-8.59 58.02-10.49 17.59-3.2 7.87-27.35 31.22-63.83l12.36-.59c.36.16.72.33 1.09.5-4.13 30.91.01 62.54 6.21 88.85z"/><path fill="#0049a7" d="M1007.116 2546.501c-.291 4.803-.843 7.771-1.659 8.208-5.821 3.114-51.664 1.28-59.668-5.996-1.194-1.077-2.095-4.599-2.766-9.838-3.114-24.74-.873-87.436 1.427-109.208.436-4.512.902-7.248 1.339-7.568 2.911-2.183 30.562-2.823 49.481-1.368 1.077.087 2.183 2.998 3.26 7.917 5.21 23.665 10.013 93.753 8.586 117.853z"/><path fill="#001f44" d="M1212.824 2144.849c-1.97-.54-198-54.18-241.11 5.61-30.88 42.82-41.05 106.33-13.37 164-50.99-63.66-61.69-146.33-33.16-225.4 0 0 .2-.05.64-.14 132.85-28.51 284.97 54.81 287 55.93z"/><path fill="#024389" d="M1788.277 2378.586c-17.174-.437-77.365 13.447-100.098 18.803-37.374-192.103-93.404-531.31-91.86-565.569 2.125-48.084 212.711-150.248 212.711-150.248-28.234 148.211-26.662 506.861-20.753 697.014z"/><path fill="#f9ae93" d="M1909.944 2520.339c-.73 9.46-176.82 7.27-190.65 8-1.54.08-4.31-7.98-8.01-22.44-2.87-11.2-6.3-26.24-10.15-44.3 25.84-.41 70.03-10.36 89.7-16.77 1.6 33.39 3.26 54.03 4.63 56.59 7.74 14.55 115.21 9.46 114.48 18.92z"/><path fill="#0049a7" d="M1832.548 1698.105c-289.232 240.158-450.715 475.251-469.809 522.927 0 0-58.941-42.699-90.958-43.427 0 0 23.285-66.217 18.192-122.975 0 0-75.677 61.124-77.132 90.23 0 0-153.275-84.642-287.019-55.942-.436.087-.641.145-.641.145s-33.967-561.727 907.628-565.132c-4.948.146-2.968 106.647-.261 174.174z"/><path fill="#f9ae93" d="M2412.024 1586.539c-40.74 27.86-46.57 33.68-50.2 48.23-3.64 14.55-5.1 71.31-25.47 48.75-20.38-22.55-35.41-11.4-114 11.16-65.59 18.83-98.67-46.16-228.921-54.72-22.559-1.49-48.05-1.27-77.12 1.36-.38-12.28-3.67-77.29-4.51-91.85 22.44-5.21 81 14.72 164.04 14.72 109.65 0 166.87-49.37 166.87-49.37s31.06-38.91 70.85-28.26c39.761 10.68 98.461 99.98 98.461 99.98z"/><path fill="#f6816b" d="M2406.81 1590.116c-40.095-6.238-71.762-62.238-93.095-60.904-21.333 1.333-34-6.43-31-14.382s-27.333-25.618 10.333-23.285c37.667 2.333 105.667 33 112 46.667 6.333 13.667 1.762 51.904 1.762 51.904z"/><path fill="#ffa608" d="M2259.948 1508.884s38.156-10.783 43.66-7.277c5.504 3.506-15.048 16.102-7.277 19.647 7.771 3.545 37.243-14.402 45.034-4.31 7.792 10.092-1.484 5.322 3.009 12.591 4.494 7.269 36.568 31.425 55.408 51.48 18.84 20.055-76.993-127.975-94.409-133.871s-45.425 61.74-45.425 61.74z"/><path fill="#ffa608" d="M2271.994 1407.04c-34.56 2.82-85.874 22.751-102.475 25.427 0 0 15.776 9.296 6.926 8.97-8.85-.326-65.456 24.884-67.558 26.507s37.681-.457 26.138 4.876c-11.544 5.333-14.014 8.433-13.562 11.664.452 3.231 39.934-.69 35.55 5.223s-31.12 24.169-17.598 28.643 41.878 34.419 63.048 23.443 102.856-65.019 115.946-66.176c13.089-1.156-46.415-68.577-46.415-68.577z"/><path fill="#002760" d="m2479.67 1585.032-.024-.031c-1.479-.814-33.161-17.971-60.607 4.031l-145.838-188.889c66.937-55.642 197.786-77.537 263.376 43.637 39.459 72.957-10.727 117.433-56.907 141.252z"/><path fill="#001f44" d="M2431.044 1604.581c-6.71 2.03-10.772 2.971-10.772 2.971l-232.597-301.261c-9.997-12.948-4.904-23.275 12.243.904 17.152 24.128 73.283 92.947 73.283 92.947l157.843 204.439z"/><path fill="#ffa608" d="M2479.67 1585.032c29.474 18.335 44.647-18.038 34.862-35.54 0 0 19.335 8.139 9.578 39.934 0 0 8.534-1.021 9.427-14.836 0 0 8.396 36.472-33.175 32.375 0 0 .192 7.011 11.859 7.15 0 0-19.308 20.873-50.242.61-30.934-20.264-30.936-10.144-30.936-10.144l-12.005-15.55c.001.001 23.874-23.075 60.632-3.999z"/><path fill="#f9ae93" d="M2289.199 1522.473c15.231-82.247-48.818-92.695-68.04-40.84-19.221 51.854 30.955 60.162 30.955 60.162l37.085-19.322z"/><path fill="#001f44" d="M2530.034 1432.127c-3.612 2.789-10.223.281-14.766-5.602-4.542-5.883-5.296-12.914-1.683-15.703 3.613-2.789 10.223-.281 14.766 5.602 4.542 5.883 5.296 12.914 1.683 15.703z"/><path fill="#005cc1" d="M1916.258 1646.179c-.495 8.732-77.132 102.834-80.043 106.239-.931 1.077-2.386-22.208-3.667-54.313-2.707-67.527-4.687-174.028.261-174.174 13.098-.436 71.311-2.445 76.172 8.732 2.096 4.832 3.843 25.206 5.065 47.444.844 14.553 1.455 29.892 1.833 42.175.379 12.225.524 21.423.379 23.897z"/><path fill="#f9ae93" d="M2090.625 1952.429c-.01 0-.02-.01-.03-.01-26.33-5.05-54.13-7.77-81.31-4.64-.289-18.95-3.06-52.88-4.86-68.6 4.68.29 9.11.55 13.21.81 113.52 7.28 197.93 17.47 212.48 80.05 10.869 46.76-57.081 8.19-139.49-7.61z"/><path fill="#0049a7" d="M2008.41 1960.995c-3.377 5.355-94.102 18.919-103.328 19.909-1.776.175-3.347-4.104-4.716-11.177-4.308-22.267-6.491-72.184-5.385-97.419.408-8.587 1.164-14.32 2.358-15.106 34.23-22.848 104.289 12.108 105.744 13.564.262.262.756 3.435 1.339 8.412 1.805 15.718 4.571 49.656 4.861 68.604.116 7.071-.117 12.048-.873 13.213z"/><circle cx="1916.313" cy="1948.392" r="12.613" fill="#005cc1" transform="rotate(-9.213 1916.28 1948.02)"/><path fill="#005cc1" d="M1800.792 2440.292c-.116.902-3.871 2.561-9.954 4.541-19.677 6.403-63.859 16.357-89.707 16.765-10.71.174-18.278-1.281-19.675-5.298-5.821-16.736-1.455-56.962-1.455-56.962a908 908 0 0 1 8.179-1.95c22.732-5.356 82.924-19.24 100.098-18.803 2.473.029 4.045.407 4.511 1.106 4.365 6.55 8.731 55.507 8.003 60.601z"/><circle cx="1704.741" cy="2433.015" r="10.187" fill="#024389"/><path fill="#fff" d="M2399.361 2102.653c-9.257 1.67-18.115-4.481-19.784-13.738l-39.303-217.896c-1.67-9.257 4.481-18.115 13.738-19.785 9.257-1.67 18.115 4.481 19.785 13.738l39.303 217.896c1.669 9.257-4.482 18.115-13.739 19.785zM2516.199 2177.958c-1.67-9.257 4.481-18.115 13.738-19.784l217.896-39.303c9.257-1.67 18.115 4.481 19.784 13.738 1.67 9.257-4.481 18.115-13.738 19.784l-217.896 39.303c-9.256 1.669-18.114-4.481-19.784-13.738zM2486.798 2106.143c-7.727-5.365-9.641-15.978-4.276-23.704l126.284-181.867c5.365-7.726 15.978-9.641 23.704-4.276 7.726 5.365 9.641 15.978 4.276 23.704l-126.284 181.867c-5.365 7.727-15.978 9.641-23.704 4.276z"/><path fill="#f6816b" d="M1993.434 1639.959c-22.559-1.49-48.05-1.27-77.12 1.36-.38-12.28-3.67-77.29-4.51-91.85 16.51 36.28 54.9 70.08 81.63 90.49zM2267.677 1513.343c5.403-30.979-13.991-34.548-19.322-21.494s5.461 15.719 2.73 21.494c-2.73 5.774-19.165 16.212-6.95 13.769 12.216-2.443 23.083-11.135 23.542-13.769zM2090.594 1952.419c-26.33-5.05-54.13-7.77-81.31-4.64-.289-18.95-3.06-52.88-4.86-68.6 41.29 19.7 10.05 49.28 86.17 73.24zM1790.834 2444.829c-12.62 29.38-75.79 35.55-75.79 42.55 0 2.86-1.72 10.5-3.76 18.52-2.87-11.2-6.3-26.24-10.15-44.3 25.84-.41 70.031-10.36 89.7-16.77z"/><path fill="#57a1f2" d="M935.22 1990.525c92.701 3.185 162.315 77.965 250.514 97.432 12.136 2.678 25.323 5.193 37.77 3.787 6.568-.742 12.617-2.807 17.983-6.708 4.784-3.478 12.813-11.228 18.489-5.1 2.63 2.839 6.865-1.412 4.243-4.243-8.693-9.386-19.33-.078-27.048 5.081-11.182 7.474-25.691 5.615-38.271 3.604-22.615-3.615-44.381-11.287-65.198-20.682-42.167-19.03-81.052-44.724-124.009-62.088-23.782-9.613-48.741-16.2-74.471-17.084-3.864-.132-3.859 5.869-.002 6.001zM1298.726 2109.255c19.575 5.503 36.313 18.902 45.666 37.01 4.155 8.045 7.509 16.583 16.064 20.924 8.456 4.291 18.408 3.791 27.578 3.068 3.824-.301 3.856-6.304 0-6-9.417.741-21.039 1.758-28.681-4.989-7.179-6.337-9.722-17.232-15.212-24.968-10.628-14.974-26.155-25.866-43.82-30.832-3.723-1.045-5.312 4.742-1.595 5.787zM972.831 1892.614a303.757 303.757 0 0 1 106.464 16.717c33.991 11.794 64.505 29.943 92.853 51.901 25.564 19.802 50.291 41.518 79.54 55.836 15.223 7.452 31.121 11.948 47.76 14.955 17.491 3.161 35.654 5.538 51.608 13.885 27.95 14.624 49.417 46.274 83.604 46.188 3.86-.01 3.868-6.01 0-6-30.499.076-51.481-28.035-75.644-42.589-14.833-8.935-31.622-12.605-48.481-15.594-17.448-3.093-34.585-6.36-50.843-13.686-30.199-13.607-55.493-35.577-81.392-55.756-27.023-21.054-55.575-38.982-87.647-51.352-37.464-14.449-77.685-21.425-117.821-20.507-3.855.09-3.869 6.09-.001 6.002zM1023.754 1807.483c72.312 3.881 145.902 14.493 211.557 46.698 29.131 14.289 56.402 32.587 79.602 55.349 23.231 22.792 40.323 51.282 70.827 65.379 17.377 8.031 35.877 13.118 52.591 22.635 17.717 10.088 33.507 23.085 49.184 36.018 2.957 2.439 7.225-1.783 4.243-4.243-13.553-11.18-27.163-22.411-41.996-31.879-14.681-9.371-30.432-15.59-46.622-21.78-16.713-6.389-31.651-14.196-44.493-26.86-11.811-11.647-21.705-25.049-33.13-37.056-46.59-48.966-110.151-78.336-175.185-93.686-41.501-9.795-84.061-14.293-126.578-16.575-3.859-.207-3.847 5.794 0 6zM1111.151 1721.786c21.068-6.665 43.225-7.531 64.757-2.568 19.962 4.601 38.612 13.423 56.351 23.489 18.198 10.327 35.699 21.884 53.359 33.092l56.776 36.031 65.125 41.33c3.27 2.075 6.283-3.115 3.028-5.181l-118.562-75.241c-35.223-22.353-70.875-48.438-111.958-58.702-23.303-5.822-47.549-5.288-70.472 1.964-3.667 1.161-2.1 6.956 1.596 5.786zM1220.813 1652.352c66.318 13.805 112.504 67.233 162.006 109.024 14.37 12.132 29.357 23.544 45.478 33.262 3.315 1.999 6.335-3.187 3.028-5.181-57.783-34.836-99.093-91.293-158.502-123.843-15.831-8.674-32.719-15.364-50.416-19.048-3.767-.784-5.378 4.998-1.594 5.786zM1333.34 1603.784c5.297 6.15 11.728 10.988 18.235 15.769a375.622 375.622 0 0 1 22.042 17.508c13.503 11.569 26.448 23.789 40.286 34.966 25.252 20.396 54.831 37.73 88.173 38.152 3.862.049 3.864-5.951 0-6-33.619-.426-63.146-19.052-88.194-39.893-13.201-10.984-25.7-22.777-38.823-33.85-12.233-10.322-26.994-18.723-37.476-30.894-2.524-2.932-6.752 1.328-4.243 4.242zM1442.542 1573.479c39.406 27.946 75.985 60.084 108.389 95.938 8.391 9.285 15.997 19.077 20.526 30.859 4.086 10.631 6.496 21.803 11.371 32.145 8.277 17.559 21.679 32.168 36.748 44.178 17.583 14.014 37.276 24.984 57.036 35.577 3.403 1.824 6.437-3.354 3.028-5.181-34.598-18.546-72.98-39.514-90.994-76.274-5.286-10.786-7.628-22.627-12.065-33.738-4.16-10.417-10.593-19.432-17.906-27.863-15.657-18.049-32.904-34.896-50.643-50.882-19.818-17.859-40.702-34.508-62.462-49.94-3.155-2.237-6.155 2.963-3.028 5.181zM1535.713 1556.621c32.531 32.37 59.59 70.016 79.71 111.277 8.658 17.757 14.696 39.114 31.666 50.962 14.393 10.049 32.572 11.563 48.569 17.854 9.788 3.849 16.61 9.676 22.483 18.316 4.765 7.01 10.056 14.747 19.433 14.712 3.86-.015 3.868-6.015 0-6-8.716.033-13.117-10.52-17.578-16.533-4.803-6.473-11.147-11.159-18.455-14.48-15.323-6.965-32.855-8.235-47.569-16.628-18.543-10.579-24.572-33.202-33.368-51.231a412.122 412.122 0 0 0-33.387-56.492c-14.085-20.01-29.917-38.741-47.261-56-2.741-2.727-6.985 1.514-4.243 4.243zM1629.814 1547.415c14.456 30.232 48.601 43.27 68.643 68.964 18.915 24.25 30.834 56.748 60.639 70.129 14.678 6.59 35.57 9.142 43.079 25.335 1.623 3.5 6.797.456 5.181-3.028-6.268-13.516-20.877-18.47-33.933-23.137-7.482-2.675-14.838-5.484-21.438-9.996-6.582-4.5-12.184-10.342-17.153-16.54-10.245-12.778-17.922-27.384-27.414-40.697-9.448-13.25-21.03-23.716-33.812-33.672-14.784-11.515-30.322-23.052-38.611-40.387-1.665-3.481-6.84-.441-5.181 3.029zM1745.849 1539.849a539.088 539.088 0 0 1 63.725 65.359c2.453 2.985 6.677-1.281 4.243-4.243a539.163 539.163 0 0 0-63.725-65.359c-2.907-2.515-7.169 1.711-4.243 4.243z"/><path fill="#005cc1" d="M1900.366 1969.727c-237.393 51.198-740.208 153.071-633.678-121.752 95.149-245.397 413.312-297.468 506.453-240.42 93.141 57.049-186.282 156.011-199.38 202.582-9.751 34.637 177.783 52.363 321.219 62.172-1.105 25.234 1.078 75.151 5.386 97.418z"/></svg>